<?xml version="1.0" encoding="iso-8859-1"?>
<!-- Generator: Adobe Illustrator 19.0.0, SVG Export Plug-In . SVG Version: 6.00 Build 0)  -->
<svg version="1.1" id="Capa_1" xmlns="http://www.w3.org/2000/svg" xmlns:xlink="http://www.w3.org/1999/xlink" x="0px" y="0px"
	 viewBox="0 0 511.996 511.996" style="enable-background:new 0 0 511.996 511.996;" xml:space="preserve">
<path style="fill:#FFDC13;" d="M324.265,418.129H187.731c-3.004-0.017-5.948-0.836-8.533-2.364v35.729
	c2.816,0.495,5.675,0.751,8.533,0.768h17.067v51.2h102.4v-51.2h17.067c2.859-0.017,5.717-0.273,8.533-0.768v-35.729
	C330.212,417.293,327.268,418.112,324.265,418.129z"/>
<circle style="fill:#FFD4B0;" cx="255.998" cy="358.396" r="34.133"/>
<g>
	<path style="fill:#4DB5FF;" d="M170.665,187.729v-59.733c0-4.71-3.823-8.533-8.533-8.533H93.865v25.6l-42.667-42.667l42.667-42.667
		v25.6h76.8c18.85,0,34.133,15.283,34.133,34.133v68.267H170.665z"/>
	<path style="fill:#4DB5FF;" d="M307.198,187.729v-68.267c0-18.85,15.283-34.133,34.133-34.133h76.8v-25.6l42.667,42.667
		l-42.667,42.667v-25.6h-68.267c-4.71,0-8.533,3.823-8.533,8.533v59.733H307.198z"/>
	<polygon style="fill:#4DB5FF;" points="238.931,187.729 238.931,51.196 213.331,51.196 255.998,8.529 298.665,51.196 
		273.065,51.196 273.065,187.729 	"/>
</g>
<g>
	<path style="fill:#EF2648;" d="M264.531,273.062h-17.067c0-14.14,11.46-25.6,25.6-25.6c4.71,0,8.533-3.823,8.533-8.533
		s-3.823-8.533-8.533-8.533h-25.6c-4.71,0-8.533,3.823-8.533,8.533h-17.067c0-14.14,11.46-25.6,25.6-25.6h25.6
		c14.14,0,25.6,11.46,25.6,25.6s-11.46,25.6-25.6,25.6C268.354,264.529,264.531,268.352,264.531,273.062z"/>
	<rect x="247.465" y="281.596" style="fill:#EF2648;" width="17.067" height="17.067"/>
</g>
<g>
	<path style="fill:#FFD4B0;" d="M170.665,401.062v-34.133c0-9.429-7.637-17.067-17.067-17.067h-17.067
		c-9.429,0-17.067,7.637-17.067,17.067l0,0c0,9.429,7.637,17.067,17.067,17.067v17.067c0.026,24.969,18.048,46.268,42.667,50.432
		v-35.729C173.933,412.736,170.682,407.13,170.665,401.062z"/>
	<path style="fill:#FFD4B0;" d="M375.465,349.862h-17.067c-9.429,0-17.067,7.637-17.067,17.067v34.133
		c-0.017,6.076-3.268,11.674-8.533,14.703v35.729c24.619-4.164,42.641-25.463,42.667-50.432v-17.067
		c9.429,0,17.067-7.637,17.067-17.067C392.531,357.5,384.885,349.862,375.465,349.862z"/>
</g>
<g>
	<path style="fill:#3596D8;" d="M170.665,187.729h34.133v-41.216c-11.273,1.86-22.63,3.413-34.133,4.548V187.729z"/>
	<path style="fill:#3596D8;" d="M307.198,119.462v68.267h34.133v-59.733c0-4.71,3.823-8.533,8.533-8.533h68.267v25.6l42.667-42.667
		l-42.667-42.667v25.6h-41.088c-22.391,12.783-45.705,23.876-69.751,33.195C307.283,118.839,307.198,119.138,307.198,119.462z"/>
	<path style="fill:#3596D8;" d="M238.931,187.729h34.133v-57.173c-11.204,3.456-22.622,6.426-34.133,9.131V187.729z"/>
</g>
<path style="fill:#EDC4A2;" d="M280.992,335.296c3.405,18.466-8.806,36.207-27.273,39.612c-11.529,2.125-23.339-1.835-31.249-10.479
	c3.26,18.543,20.932,30.933,39.475,27.682c18.543-3.251,30.933-20.932,27.682-39.475
	C288.484,346.142,285.481,340.117,280.992,335.296z"/>
<path style="fill:#E5AF17;" d="M204.798,494.929v8.533h102.4v-51.2h17.067c2.859-0.017,5.717-0.273,8.533-0.768v-35.729
	c-1.596,0.896-3.328,1.527-5.12,1.886C304.962,464.875,257.201,494.912,204.798,494.929z"/>
<path d="M255.998,401.062c23.561,0,42.667-19.106,42.667-42.667s-19.106-42.667-42.667-42.667s-42.667,19.106-42.667,42.667
	C213.357,381.948,232.446,401.028,255.998,401.062z M255.998,332.796c14.14,0,25.6,11.46,25.6,25.6s-11.46,25.6-25.6,25.6
	s-25.6-11.46-25.6-25.6S241.858,332.796,255.998,332.796z"/>
<path d="M204.798,511.996h102.4c4.71,0,8.533-3.823,8.533-8.533v-42.667h8.533c32.973-0.043,59.691-26.761,59.733-59.733v-9.993
	c13.329-4.702,20.326-19.328,15.625-32.657c-3.618-10.249-13.303-17.092-24.158-17.084h-17.067c-14.14,0-25.6,11.46-25.6,25.6
	v34.133c0,4.71-3.823,8.533-8.533,8.533H187.731c-4.71,0-8.533-3.823-8.533-8.533v-34.133c0-14.14-11.46-25.6-25.6-25.6h-17.067
	c-14.14,0-25.6,11.46-25.6,25.6c0.009,10.846,6.844,20.506,17.067,24.124v10.01c0.043,32.973,26.761,59.691,59.733,59.733h8.533
	v42.667C196.265,508.173,200.087,511.996,204.798,511.996z M187.731,443.729c-23.552-0.026-42.641-19.115-42.667-42.667v-17.067
	c0-4.71-3.823-8.533-8.533-8.533l0,0c-4.71,0-8.533-3.823-8.533-8.533s3.823-8.533,8.533-8.533h17.067
	c4.71,0,8.533,3.823,8.533,8.533v34.133c0,14.14,11.46,25.6,25.6,25.6h136.533c14.14,0,25.6-11.46,25.6-25.6v-34.133
	c0-4.71,3.823-8.533,8.533-8.533h17.067c4.71,0,8.533,3.823,8.533,8.533s-3.823,8.533-8.533,8.533c-4.71,0-8.533,3.823-8.533,8.533
	v17.067c-0.026,23.552-19.115,42.641-42.667,42.667h-17.067c-4.71,0-8.533,3.823-8.533,8.533v42.667h-85.333v-42.667
	c0-4.71-3.823-8.533-8.533-8.533H187.731z"/>
<path d="M97.133,51.844c-3.191-1.323-6.861-0.589-9.301,1.852L45.165,96.363c-3.328,3.337-3.328,8.738,0,12.066l42.667,42.667
	c3.337,3.328,8.738,3.328,12.066,0c1.604-1.604,2.5-3.772,2.5-6.033v-17.067h59.733v59.733c0,4.71,3.823,8.533,8.533,8.533h34.133
	c4.71,0,8.533-3.823,8.533-8.533v-68.267c-0.026-23.552-19.115-42.641-42.667-42.667h-68.267V59.729
	C102.398,56.273,100.316,53.167,97.133,51.844z M170.665,93.862c14.14,0,25.6,11.46,25.6,25.6v59.733h-17.067v-51.2
	c0-9.429-7.637-17.067-17.067-17.067H93.865c-4.71,0-8.533,3.823-8.533,8.533v5.001l-22.067-22.067l22.067-22.067v5.001
	c0,4.71,3.823,8.533,8.533,8.533H170.665z"/>
<path d="M414.863,152.947c3.191,1.323,6.861,0.589,9.301-1.852l42.667-42.667c3.328-3.337,3.328-8.73,0-12.066l-42.667-42.667
	c-3.337-3.328-8.738-3.328-12.066,0c-1.604,1.596-2.5,3.772-2.5,6.033v17.067h-68.267c-23.552,0.026-42.641,19.115-42.667,42.667
	v68.267c0,4.71,3.823,8.533,8.533,8.533h34.133c4.71,0,8.533-3.823,8.533-8.533v-59.733h59.733v17.067
	C409.598,148.51,411.671,151.625,414.863,152.947z M349.865,110.929c-9.429,0-17.067,7.637-17.067,17.067v51.2h-17.067v-59.733
	c0-14.14,11.46-25.6,25.6-25.6h76.8c4.71,0,8.533-3.823,8.533-8.533v-5.001l22.067,22.067l-22.067,22.067v-5.001
	c0-4.71-3.823-8.533-8.533-8.533H349.865z"/>
<path d="M262.031,2.496c-3.328-3.328-8.738-3.328-12.066,0l-42.667,42.667c-3.328,3.337-3.328,8.738,0,12.066
	c1.604,1.596,3.772,2.5,6.033,2.5h17.067v128c0,4.71,3.823,8.533,8.533,8.533h34.133c4.71,0,8.533-3.823,8.533-8.533v-128h17.067
	c4.71,0,8.533-3.823,8.533-8.533c0-2.261-0.896-4.429-2.5-6.033L262.031,2.496z M273.065,42.662c-4.71,0-8.533,3.823-8.533,8.533
	v128h-17.067v-128c0-4.71-3.823-8.533-8.533-8.533h-5.001l22.067-22.067l22.067,22.067H273.065z"/>
<g>
</g>
<g>
</g>
<g>
</g>
<g>
</g>
<g>
</g>
<g>
</g>
<g>
</g>
<g>
</g>
<g>
</g>
<g>
</g>
<g>
</g>
<g>
</g>
<g>
</g>
<g>
</g>
<g>
</g>
</svg>
